<svg xmlns="http://www.w3.org/2000/svg" viewBox="0 0 99.480225 123.79848" width="99.480225mm" height="123.79848mm" xmlns:svg="http://www.w3.org/2000/svg"> <path d="m 9.5499187,123.53882 c -4.7253,-0.92799 -8.59519002,-5.05611 -9.28098002,-9.90028 -0.36133,-2.55229 -0.35715,-100.94037 0.004,-103.45208 C 0.99373868,5.17898 4.7871087,1.2125 9.7565587,0.27006 10.666449,0.09751 20.868289,0 38.01282,0 c 22.806045,0 26.93944,0.057 27.546699,0.37979 0.392956,0.20888 8.066402,7.73977 17.052108,16.7353 12.70948,12.7234 16.39648,16.56069 16.60259,17.27941 0.35964,1.254 0.3523,76.70105 -0.008,79.24404 -0.70137,4.95417 -4.55393,8.98066 -9.48803,9.91639 -1.76608,0.33494 -78.459958,0.31952 -80.1689683,-0.0161 z m 79.7130883,-5.90923 c 1.71115,-0.51498 2.90419,-1.49523 3.64106,-2.99167 l 0.62239,-1.26396 0.0714,-37.62229 0.0714,-37.62229 -12.10996,-0.0831 C 69.487102,37.96338 69.444388,37.96118 67.861838,37.32819 65.669168,36.45116 63.030587,33.81364 62.149101,31.61774 61.51267,30.03231 61.511738,30.01448 61.435583,17.92041 L 61.359323,5.81059 35.896062,5.88189 10.432799,5.95319 9.1195287,6.6291 c -0.79514,0.40925 -1.62738,1.12284 -2.10944,1.80871 l -0.79617,1.13279 -0.0777,51.76942 c -0.0534,35.58036 0.009,52.0702 0.19998,52.73128 0.40108,1.38917 2.11043,3.03719 3.63682,3.50633 1.8695703,0.57463 77.3888783,0.62417 79.2899783,0.052 z M 17.539319,104.2575 c -1.1819,-0.72065 -1.62949,-2.23354 -1.03281,-3.49096 0.92316,-1.94539 -1.31109,-1.81238 30.441103,-1.81238 31.274005,0 29.572695,-0.0882 30.434785,1.57884 0.22075,0.42688 0.40091,1.04994 0.40037,1.38459 -0.001,0.88181 -0.94865,2.30001 -1.73615,2.59942 -0.42562,0.16182 -11.299136,0.25762 -29.170191,0.257 -27.773707,-0.001 -28.512937,-0.014 -29.337107,-0.51651 z m 0.5809,-15.08076 c -0.69721,-0.28838 -1.61337,-1.31702 -1.84083,-2.06683 -0.25559,-0.84257 0.29911,-2.33679 1.10191,-2.96827 0.66534,-0.52336 1.02984,-0.53331 19.539711,-0.53331 h 18.861727 l 0.805053,0.67741 c 1.031655,0.86808 1.289968,2.12352 0.694931,3.37747 -0.868937,1.83114 -0.130297,1.76786 -20.417078,1.74918 -10.018944,-0.009 -18.454384,-0.11526 -18.745424,-0.23565 z m 1.54132,-21.56489 c -1.4621,-0.63598 -1.81333,-1.50031 -1.7519,-4.31122 0.0297,-1.35913 0.23852,-3.20974 0.46403,-4.11245 1.4685,-5.87848 6.468396,-10.83587 12.314253,-12.20956 2.41777,-0.56815 12.134312,-0.56815 14.552083,0 5.850318,1.37474 10.805048,6.26745 12.299147,12.1452 0.22824,0.89789 0.400852,2.73393 0.400852,4.2638 0,3.06221 -0.338942,3.80267 -1.990087,4.3476 -0.775999,0.2561 -1.081678,0.22747 -1.914091,-0.17928 -1.403811,-0.68597 -1.915737,-1.85522 -1.916245,-4.37674 -7.94e-4,-4.40151 -2.257854,-7.90508 -6.337876,-9.8385 L 44.04938,52.51979 h -6.099138 -6.09914 l -2.016059,0.99639 c -2.344134,1.15854 -4.036621,2.8652 -5.127532,5.17046 -0.570402,1.20536 -0.750592,2.07241 -0.902472,4.34252 -0.21382,3.19606 -0.56064,3.99561 -1.99274,4.59398 -1.07686,0.44994 -1.09058,0.44987 -2.15076,-0.0113 z M 35.450422,44.88328 c -3.486801,-0.75745 -6.495656,-3.14919 -8.13526,-6.4667 -0.974196,-1.97115 -0.992865,-2.0664 -0.992865,-5.06536 0,-2.89268 0.04557,-3.15264 0.850651,-4.85231 3.635431,-7.6751 13.47707,-9.40128 19.227609,-3.37244 2.825144,2.96187 3.943731,6.89003 3.08098,10.8195 -0.981408,4.46991 -4.836202,8.17071 -9.383355,9.00852 -1.910455,0.352 -2.759479,0.33899 -4.64776,-0.0712 z m 5.326009,-6.27163 c 1.208601,-0.61659 2.539399,-2.19784 2.880037,-3.42207 1.134364,-4.07681 -1.575697,-7.78129 -5.692505,-7.78129 -3.415138,0 -5.953124,2.52779 -5.953124,5.92921 0,4.51843 4.701711,7.34738 8.765592,5.27415 z m 48.384406,-6.53212 c 0,-0.10979 -4.94109,-5.13965 -10.98021,-11.17744 L 67.20042,9.92427 v 9.33386 c 0,10.04192 0.04391,10.40851 1.396024,11.65453 1.365072,1.25797 2.090819,1.34248 11.634703,1.3549 4.91133,0.006 8.92969,-0.0782 8.92969,-0.18803 z"/> </svg>