<svg xmlns="http://www.w3.org/2000/svg" viewBox="0 0 135 135" width="135mm" height="135mm" fill="000" xmlns:svg="http://www.w3.org/2000/svg"><path d="m 10.055384,135.04609 c -2.4088104,-0.63989 -4.2676904,-1.72152 -6.0894704,-3.5433 -0.95939,-0.95939 -2.041,-2.36918 -2.43902,-3.17906 -1.62639997,-3.30936 -1.52566997,0.69094 -1.52566997,-60.589579 0,-61.2805171 -0.10073,-57.280217 1.52566997,-60.5895781 0.92074,-1.873478 3.7446,-4.697343 5.61808,-5.618075 C 10.426224,-0.08609009 7.6949436,8.2290554e-4 55.090143,8.2290554e-4 H 98.426224 V 16.64855 33.296276 l 0.85989,0.184608 c 0.47294,0.101534 8.097326,1.889927 16.943076,3.974217 10.54636,2.48499 16.39403,3.98172 16.98614,4.34766 1.42354,0.8798 2.11689,2.23 2.11871,4.12589 0.001,1.33307 -0.1256,1.7936 -0.7374,2.67642 -1.00431,1.44923 -1.83296,1.83207 -6.14022,2.83687 l -3.70416,0.86411 -0.1323,12.92313 -0.13229,12.92313 -12.30312,3.07811 c -6.76672,1.69297 -12.630546,3.16115 -13.030726,3.26263 l -0.7276,0.18451 v 14.39692 c 0,16.128899 0.22359,14.458029 -1.98438,14.828569 -2.58009,0.43301 -5.22685,2.70497 -6.20888,5.32971 -1.94481,5.19796 1.37312,10.92118 6.77786,11.69141 l 1.2831,0.18285 0.0769,2.18023 0.0768,2.18023 -43.468506,-0.0174 c -37.244044,-0.0149 -43.676894,-0.0728 -44.923724,-0.40398 z m 78.31667,-4.04084 c 0,-0.1259 -0.24088,-0.53513 -0.53528,-0.90941 -0.93848,-1.19308 -2.12024,-4.03153 -2.40381,-5.77365 -0.53746,-3.30194 0.37227,-7.09087 2.31684,-9.64947 0.34224,-0.4503 0.62225,-0.89948 0.62225,-0.99818 0,-0.0987 -17.353361,-0.14699 -38.563021,-0.10732 l -38.563019,0.0721 -1.4869604,0.69722 c -1.93434,0.90699 -3.38821,2.24242 -4.33484,3.98168 -1.05721,1.94245 -1.23193,4.9624 -0.41273,7.13397 1.07511,2.84999 3.71557,4.98624 6.8035104,5.50438 1.73754,0.29155 76.55706,0.33908 76.55706,0.0486 z m -77.34653,-6.56207 c -0.097,-0.097 -0.17639,-1.10905 -0.17639,-2.24896 v -2.07257 h 30.55938 30.559372 v 2.24896 2.24895 H 41.584904 c -16.71064,0 -30.46236,-0.0794 -30.55938,-0.17638 z m 65.44028,-2.07257 v -2.27036 l 2.18281,0.0768 2.18281,0.0769 v 2.11667 2.11666 l -2.18281,0.0769 -2.18281,0.0768 z M 6.0717436,111.42077 c 0.87475,-0.56538 2.30751,-1.24276 3.18392,-1.50528 l 1.5934704,-0.47732 V 57.082921 4.7276639 l -0.59531,0.18364 c -2.9199204,0.900729 -5.1986704,3.682367 -5.7375404,7.0037471 -0.27492,1.694483 -0.43061,100.533679 -0.15836,100.533679 0.0679,0 0.83907,-0.46258 1.71382,-1.02796 z M 93.928304,97.002051 v -12.27168 l -13.09688,-3.26989 -13.096871,-3.26987 v -12.89095 -12.89094 l -0.992187,-0.2652 c -0.545704,-0.14585 -1.825625,-0.45365 -2.844271,-0.68399 -1.018646,-0.23034 -2.060443,-0.48081 -2.315104,-0.55659 -0.433329,-0.12894 -0.463021,0.34349 -0.463021,7.36703 v 7.50482 l 1.389062,0.91353 c 0.991759,0.65225 1.616094,1.32976 2.182813,2.36875 l 0.79375,1.45521 0.08295,8.40052 0.08295,8.40052 H 59.02011 52.388726 v -7.89545 c 0,-8.56374 0.128622,-9.57112 1.441871,-11.29287 0.381,-0.49952 1.224473,-1.21984 1.874388,-1.60072 l 1.181658,-0.69249 v -2.35611 -2.35611 H 40.482474 24.078304 v -2.11667 -2.11667 h 16.40417 16.404163 v -2.24895 -2.24896 H 40.482474 24.078304 V 32.809155 13.229989 h 30.559375 30.559375 v 10.980208 c 0,6.039114 0.0893,10.981844 0.19844,10.983834 0.10914,0.002 2.07367,-0.436117 4.36562,-0.973584 l 4.16719,-0.977212 V 18.738696 4.2341559 H 54.637679 15.347054 V 56.753941 109.27373 h 39.290625 39.290625 z m -69.85,-0.64815 v -2.07595 l 8.37752,-0.17503 c 4.60764,-0.0963 11.99433,-0.17502 16.41487,-0.17502 h 8.037342 l -0.07685,2.18281 -0.07685,2.18281 -16.338022,0.0682 -16.33802,0.0682 z m 37.041666,-0.002 v -2.0743 l 6.548437,-0.17409 c 3.601641,-0.0957 9.018987,-0.17434 12.038547,-0.17465 l 5.4901,-5.8e-4 v 2.24896 2.24896 H 73.158514 61.11997 v -2.07431 z m -37.041666,-8.90322 v -2.25165 h 12.04924 12.049243 l -0.07685,2.18281 -0.07685,2.18281 -11.972393,0.0688 -11.9724,0.0688 z m 0,-8.73125 v -2.25165 h 12.04924 12.049243 l -0.07685,2.18281 -0.07685,2.18282 -11.972393,0.0688 -11.9724,0.0688 z m 0,-8.86623 v -2.11667 h 12.03854 12.038543 v 2.11667 2.11666 H 36.116844 24.078304 Z m 37.033252,7.34218 c -0.0063,-4.41028 -0.09467,-6.00051 -0.352292,-6.33959 -0.538245,-0.70845 -1.643648,-1.0322 -2.462001,-0.72106 -1.348851,0.51283 -1.393172,0.736 -1.402212,7.06065 l -0.0084,5.88698 h 2.116666 2.116667 z m 47.238684,0.56229 11.77181,-2.94343 v -2.08365 c 0,-2.33916 0.0801,-2.27471 -2.10437,-1.69337 -0.79359,0.21119 -1.48731,0.33957 -1.5416,0.28529 -0.0709,-0.0709 -1.07031,-3.68345 -1.112,-4.01939 -0.002,-0.0201 1.06703,-0.30131 2.37672,-0.62492 l 2.38125,-0.58839 v -6.34907 -6.34908 l -0.59532,0.14797 c -0.32742,0.0814 -5.72518,1.35309 -11.99503,2.82603 l -11.399706,2.67807 -11.88362,-2.7984 c -6.53599,-1.53911 -11.975063,-2.79792 -12.086839,-2.79734 -0.111774,5.3e-4 -0.171305,2.82878 -0.132292,6.2849 l 0.07094,6.28385 12.026761,3.0243 12.02676,3.0243 7.155526,-1.77416 c 3.93554,-0.97579 7.28134,-1.77118 7.4351,-1.76753 0.34726,0.008 1.2677,3.73323 0.98459,3.98458 -0.11321,0.1005 -3.68926,1.04717 -7.94679,2.10369 l -7.740966,1.92095 -11.7699,-2.94296 c -6.47345,-1.61863 -11.89494,-2.94296 -12.047767,-2.94296 -0.176842,0 -0.249769,0.74549 -0.200588,2.05052 l 0.07727,2.05052 11.641665,2.95305 c 6.40292,1.62417 11.91053,2.96362 12.23913,2.97656 0.32861,0.0129 5.894776,-1.30103 12.369266,-2.91993 z m 5.25652,-27.28509 c 10.81968,-2.54341 17.21456,-4.16384 17.29919,-4.38352 0.0738,-0.19168 0.0292,-0.45059 -0.0993,-0.57535 -0.25884,-0.25138 -33.866006,-8.20426 -34.669426,-8.20426 -0.52188,0 -33.76502,7.77817 -34.580389,8.09105 -0.514565,0.19746 -0.466723,0.62147 0.10804,0.95752 0.434361,0.25396 33.437629,8.08145 34.247789,8.12266 0.29105,0.0148 8.253376,-1.78884 17.694086,-4.0081 z m -56.720123,-4.04815 c 0,-2.37497 0.812842,-3.93436 2.512917,-4.8209 0.436906,-0.22783 5.437812,-1.50749 11.113124,-2.8437 l 10.318746,-2.42946 0.0695,-9.432332 0.0695,-9.432337 H 54.64102 28.311634 v 15.169443 c 0,8.343196 0.0794,15.248816 0.17639,15.345836 0.097,0.097 6.52639,0.17639 14.2875,0.17639 h 14.111113 z"/></svg>